<svg width="26" height="26" viewBox="0 0 26 26" fill="none" xmlns="http://www.w3.org/2000/svg">
<rect width="26" height="26" rx="2" fill="#FFD912"/>
<path d="M15.8125 13.75C15.8125 13.6008 15.7532 13.4577 15.6477 13.3523C15.5423 13.2468 15.3992 13.1875 15.25 13.1875H10.75C10.6008 13.1875 10.4577 13.2468 10.3523 13.3523C10.2468 13.4577 10.1875 13.6008 10.1875 13.75C10.1875 13.8992 10.2468 14.0423 10.3523 14.1477C10.4577 14.2532 10.6008 14.3125 10.75 14.3125H15.25C15.3992 14.3125 15.5423 14.2532 15.6477 14.1477C15.7532 14.0423 15.8125 13.8992 15.8125 13.75ZM15.8125 16.75C15.8125 16.6008 15.7532 16.4577 15.6477 16.3523C15.5423 16.2468 15.3992 16.1875 15.25 16.1875H10.75C10.6008 16.1875 10.4577 16.2468 10.3523 16.3523C10.2468 16.4577 10.1875 16.6008 10.1875 16.75C10.1875 16.8992 10.2468 17.0423 10.3523 17.1477C10.4577 17.2532 10.6008 17.3125 10.75 17.3125H15.25C15.3992 17.3125 15.5423 17.2532 15.6477 17.1477C15.7532 17.0423 15.8125 16.8992 15.8125 16.75Z" fill="black"/>
<path fill-rule="evenodd" clip-rule="evenodd" d="M9.25 5.6875C8.70299 5.6875 8.17839 5.9048 7.79159 6.29159C7.4048 6.67839 7.1875 7.20299 7.1875 7.75V18.25C7.1875 18.797 7.4048 19.3216 7.79159 19.7084C8.17839 20.0952 8.70299 20.3125 9.25 20.3125H16.75C17.297 20.3125 17.8216 20.0952 18.2084 19.7084C18.5952 19.3216 18.8125 18.797 18.8125 18.25V9.976C18.8125 9.69025 18.7195 9.41275 18.547 9.18475L16.2985 6.20875C16.1762 6.04684 16.0179 5.9155 15.8363 5.82506C15.6546 5.73461 15.4544 5.68753 15.2515 5.6875H9.25ZM8.3125 7.75C8.3125 7.2325 8.7325 6.8125 9.25 6.8125H14.6875V10.1103C14.6875 10.4208 14.9395 10.6728 15.25 10.6728H17.6875V18.25C17.6875 18.7675 17.2675 19.1875 16.75 19.1875H9.25C8.7325 19.1875 8.3125 18.7675 8.3125 18.25V7.75Z" fill="black"/>
</svg>
