<svg width="55" height="55" viewBox="0 0 55 55" fill="none" xmlns="http://www.w3.org/2000/svg">
<circle cx="27.2105" cy="27.2105" r="27.2105" fill="#EA4335"/>
<path d="M35.7473 37.88C33.1019 38.9467 30.5846 39.544 28.1953 39.672C25.8059 39.8213 23.6939 39.5013 21.8593 38.712C20.0459 37.9013 18.5953 36.632 17.5073 34.904C16.4406 33.1547 15.9073 30.9147 15.9073 28.184C15.9073 26.4133 16.1846 24.8347 16.7393 23.448C17.2939 22.04 18.0406 20.8347 18.9793 19.832C19.9393 18.808 21.0273 17.9867 22.2433 17.368C23.4806 16.728 24.7713 16.3013 26.1153 16.088C27.4806 15.8533 28.8566 15.832 30.2433 16.024C31.6299 16.1947 32.9419 16.5787 34.1793 17.176C34.1579 17.8373 34.0406 18.4773 33.8273 19.096C33.6139 19.7147 33.2939 20.2587 32.8673 20.728C31.3526 20.0667 29.8486 19.7893 28.3553 19.896C26.8833 19.9813 25.5499 20.3653 24.3553 21.048C23.1819 21.7307 22.2219 22.68 21.4753 23.896C20.7499 25.0907 20.3873 26.4667 20.3873 28.024C20.3873 29.8587 20.6753 31.3733 21.2513 32.568C21.8273 33.7627 22.6166 34.648 23.6193 35.224C24.6433 35.8 25.8273 36.088 27.1713 36.088C28.5366 36.0667 29.9979 35.7573 31.5553 35.16C31.5553 34.8187 31.5553 34.4347 31.5553 34.008C31.5553 33.56 31.5446 33.112 31.5233 32.664C31.5233 32.216 31.5233 31.7787 31.5233 31.352C31.5233 30.9253 31.5233 30.5413 31.5233 30.2C31.2459 30.2213 30.9153 30.2427 30.5312 30.264C30.1686 30.264 29.7846 30.264 29.3793 30.264C28.9739 30.264 28.5686 30.264 28.1633 30.264C27.7579 30.2427 27.3846 30.2213 27.0433 30.2C26.8086 29.624 26.7019 28.9947 26.7233 28.312C26.7446 27.608 26.8726 26.9787 27.1073 26.424C27.6833 26.3813 28.3446 26.3493 29.0913 26.328C29.8593 26.3067 30.6379 26.296 31.4272 26.296C32.2166 26.296 32.9953 26.3067 33.7633 26.328C34.5313 26.3493 35.2139 26.3813 35.8113 26.424C35.8539 27.2347 35.8859 28.12 35.9073 29.08C35.9286 30.04 35.9393 31.0213 35.9393 32.024C35.9393 33.0267 35.9179 34.0293 35.8753 35.032C35.8539 36.0347 35.8113 36.984 35.7473 37.88Z" fill="white"/>
</svg>
