<svg width="48" height="37" viewBox="0 0 48 37" fill="none" xmlns="http://www.w3.org/2000/svg">
<path d="M1.73574 20.9973C1.84953 13.751 8.88504 7.60795 17.9457 7.75023C27.0064 7.89251 33.8456 14.2534 33.7318 21.4998C33.618 28.7461 26.5825 34.8892 17.5218 34.7469C8.4611 34.6046 1.62195 28.2437 1.73574 20.9973Z" fill="#FFD912" stroke="#FFD912" stroke-width="3"/>
<path d="M40.4966 8.70508C40.8324 10.9055 41.0069 13.5794 41.1069 16.0393C41.0481 17.5885 40.6483 18.1748 40.3815 18.3988C40.1134 18.6239 39.6183 18.7865 38.6669 18.6515C37.7272 18.5181 36.5978 18.1267 35.3607 17.5855C34.3461 17.1417 33.3359 16.6326 32.3617 16.1417C32.1557 16.0378 31.9512 15.9348 31.7487 15.8334C30.7236 15.32 29.8517 14.9464 29.1714 14.655C29.0679 14.6106 28.9687 14.5681 28.8742 14.5274C28.2797 14.271 27.9617 14.1172 27.7851 14.0099C27.8461 13.7825 28.002 13.3809 28.3537 12.6785C28.7 11.9869 29.439 10.9916 30.4764 9.8938C31.4963 8.81448 32.7336 7.71097 34.0042 6.79286C35.2893 5.86423 36.5333 5.18004 37.5697 4.86374C38.6452 4.53555 39.1479 4.69635 39.3696 4.87345C39.3694 4.87327 39.3695 4.87335 39.3699 4.87371C39.3754 4.8789 39.4421 4.94119 39.5454 5.12564C39.652 5.31598 39.7683 5.58355 39.8863 5.93867C40.1233 6.6516 40.327 7.59346 40.4966 8.70508Z" fill="#FFD912" stroke="#FFD912" stroke-width="3"/>
<path d="M18.3371 6.53715L17.7389 6.72176L17.4494 7.27689C17.2634 7.6335 16.7545 8.05712 15.9854 8.29212C15.214 8.52786 14.5494 8.46099 14.2092 8.28356C14.1979 8.27767 14.0627 8.19038 13.8983 7.85463C13.7425 7.53618 13.6177 7.10653 13.5541 6.62767C13.4907 6.15066 13.4966 5.68882 13.5561 5.32233C13.5813 5.16725 13.6117 5.05446 13.6382 4.97596C13.8801 4.92885 14.2341 4.89352 14.6929 4.87661C15.6025 4.84308 16.7303 4.88751 17.795 4.95339C18.3783 5.03276 18.8849 5.21571 19.255 5.43369C19.5372 5.59987 19.6818 5.74977 19.7488 5.8388C19.6057 5.98468 19.2184 6.26521 18.3371 6.53715Z" fill="#FFD912" stroke="#FFD912" stroke-width="3"/>
<circle cx="9.36914" cy="17" r="2" fill="white"/>
<circle cx="9.36914" cy="17" r="2" fill="white"/>
<circle cx="9.36914" cy="17" r="2" fill="white"/>
<circle cx="9.36914" cy="17" r="2" fill="white"/>
<circle cx="9.36914" cy="17" r="2" fill="white"/>
<circle cx="16.3691" cy="17" r="2" fill="white"/>
<path d="M7.36914 23.8471C9.95738 21.1805 12.3691 25.8472 18.3691 23.8471" stroke="white" stroke-width="3" stroke-linecap="round"/>
<circle cx="8.36914" cy="17" r="1" fill="black"/>
<circle cx="8.36914" cy="17" r="1" fill="black"/>
<circle cx="17.3691" cy="17" r="1" fill="black"/>
<circle cx="17.3691" cy="17" r="1" fill="black"/>
<path d="M22.3699 9.23886C22.4614 9.21887 23.5521 9.52406 24.7424 10.2871" stroke="white" stroke-linecap="round"/>
<path d="M25.9353 11.0571C25.9685 11.0639 25.9813 11.0746 25.9981 11.1035" stroke="white" stroke-linecap="round"/>
</svg>
