<svg width="43" height="44" viewBox="0 0 43 44" fill="none" xmlns="http://www.w3.org/2000/svg">
<circle cx="21.5" cy="15.5" r="14.25" fill="#20A13C" stroke="#20A23C" stroke-width="2.5"/>
<circle cx="18" cy="14" r="2" fill="white"/>
<circle cx="18" cy="14" r="2" fill="white"/>
<circle cx="18" cy="14" r="2" fill="white"/>
<circle cx="18" cy="14" r="2" fill="white"/>
<circle cx="18" cy="14" r="2" fill="white"/>
<circle cx="25" cy="14" r="2" fill="white"/>
<path d="M29 30L35.4702 36.6441" stroke="#20A13C" stroke-width="7" stroke-linecap="round"/>
<path d="M30 28C30 28 34.5 31 39.148 29.5237" stroke="#20A13C" stroke-width="7" stroke-linecap="round"/>
<path d="M13.1484 28C13.1484 28 8.64844 31 4.00043 29.5237" stroke="#20A13C" stroke-width="7" stroke-linecap="round"/>
<path d="M15.4707 30L9.00047 36.6441" stroke="#20A13C" stroke-width="7" stroke-linecap="round"/>
<path d="M25 31L26.5929 40.1362" stroke="#20A13C" stroke-width="7" stroke-linecap="round"/>
<path d="M19.4688 31L17.9999 40.157" stroke="#20A13C" stroke-width="7" stroke-linecap="round"/>
<path d="M20 19H24" stroke="white" stroke-linecap="round"/>
<path d="M28.906 4.46896C28.9997 4.46897 30 5.00012 30.9998 5.99985" stroke="white" stroke-linecap="round"/>
<path d="M32 7.0068C32.031 7.02054 32.0412 7.0337 32.0515 7.06557" stroke="white" stroke-linecap="round"/>
<circle cx="17" cy="14" r="1" fill="black"/>
<circle cx="17" cy="14" r="1" fill="black"/>
<circle cx="24" cy="14" r="1" fill="black"/>
<circle cx="24" cy="14" r="1" fill="black"/>
</svg>
