<svg width="48" height="48" viewBox="0 0 48 48" fill="none" xmlns="http://www.w3.org/2000/svg">
<path d="M23.2314 0.923326C23.6312 0.443007 24.3688 0.443006 24.7686 0.923326L33.1483 10.9903C33.2548 11.1182 33.3914 11.2175 33.546 11.2792L45.7097 16.138C46.2901 16.3698 46.518 17.0712 46.1847 17.5999L39.1999 28.6804C39.1112 28.8211 39.059 28.9818 39.048 29.1478L38.1859 42.2177C38.1448 42.8413 37.5481 43.2748 36.9423 43.1212L24.2457 39.9023C24.0845 39.8614 23.9155 39.8614 23.7543 39.9023L11.0577 43.1212C10.4519 43.2748 9.85522 42.8413 9.81408 42.2177L8.95195 29.1478C8.941 28.9818 8.8888 28.8211 8.80007 28.6804L1.81528 17.5999C1.48202 17.0712 1.70992 16.3698 2.29028 16.138L14.454 11.2792C14.6086 11.2175 14.7452 11.1182 14.8517 10.9903L23.2314 0.923326Z" fill="#F54C4C"/>
<circle cx="19" cy="19" r="2" fill="white"/>
<circle cx="19" cy="19" r="2" fill="white"/>
<circle cx="19" cy="19" r="2" fill="white"/>
<circle cx="19" cy="19" r="2" fill="white"/>
<circle cx="19" cy="19" r="2" fill="white"/>
<circle cx="29" cy="19" r="2" fill="white"/>
<path d="M20 25C22.1176 29 26.8824 29 29 25" stroke="white" stroke-width="3" stroke-linecap="round"/>
<circle cx="19" cy="19" r="1" fill="black"/>
<circle cx="19" cy="19" r="1" fill="black"/>
<circle cx="29" cy="19" r="1" fill="black"/>
<circle cx="29" cy="19" r="1" fill="black"/>
<path d="M21.7973 4.88429C21.7568 4.94126 21.0629 5.79382 20.1386 6.86114" stroke="white" stroke-linecap="round"/>
<path d="M18.9994 8.05225C19.0008 8.05095 19.0205 8.0291 19.0449 8.00028" stroke="white" stroke-linecap="round"/>
</svg>
