<svg width="20" height="20" viewBox="0 0 20 20" fill="none" xmlns="http://www.w3.org/2000/svg">
<path d="M9.5919 1.44187C9.79116 1.16039 10.2088 1.16039 10.4081 1.44187L13.3403 5.58403C13.5306 5.85289 13.8042 6.05162 14.1187 6.14955L18.9642 7.65825C19.2935 7.76078 19.4226 8.15801 19.2164 8.4345L16.1831 12.5032C15.9862 12.7673 15.8817 13.0888 15.8858 13.4182L15.9483 18.4928C15.9525 18.8377 15.6146 19.0832 15.288 18.9726L10.4811 17.345C10.1691 17.2394 9.83095 17.2394 9.51894 17.345L4.71203 18.9726C4.38538 19.0832 4.04747 18.8377 4.05172 18.4928L4.1142 13.4182C4.11826 13.0888 4.01378 12.7673 3.8169 12.5032L0.783573 8.4345C0.577444 8.15801 0.706513 7.76078 1.03579 7.65825L5.88132 6.14955C6.19583 6.05162 6.46936 5.85289 6.65969 5.58403L9.5919 1.44187Z" fill="#FFE34D" stroke="black"/>
</svg>
