<svg width="31" height="30" viewBox="0 0 31 30" fill="none" xmlns="http://www.w3.org/2000/svg">
<path d="M14.6838 1.15299C15.0823 0.590025 15.9177 0.590024 16.3162 1.15298L21.2204 8.08089C21.3473 8.26013 21.5297 8.39262 21.7393 8.4579L29.8437 10.9813C30.5022 11.1863 30.7604 11.9808 30.3481 12.5338L25.2748 19.3388C25.1435 19.5149 25.0738 19.7292 25.0766 19.9488L25.1811 28.4363C25.1896 29.1259 24.5137 29.6169 23.8604 29.3957L15.8207 26.6736C15.6127 26.6032 15.3873 26.6032 15.1793 26.6736L7.13957 29.3957C6.48626 29.6169 5.81044 29.1259 5.81894 28.4363L5.92345 19.9488C5.92615 19.7292 5.8565 19.5149 5.72524 19.3388L0.651904 12.5338C0.239646 11.9808 0.497782 11.1863 1.15634 10.9813L9.26066 8.4579C9.47033 8.39262 9.65269 8.26013 9.77957 8.08089L14.6838 1.15299Z" fill="#FFD912"/>
</svg>
